<?xml version="1.0" encoding="iso-8859-1"?>
<!-- Generator: Adobe Illustrator 19.0.0, SVG Export Plug-In . SVG Version: 6.00 Build 0)  -->
<svg version="1.1" id="Capa_1" xmlns="http://www.w3.org/2000/svg" xmlns:xlink="http://www.w3.org/1999/xlink" x="0px" y="0px"
	 viewBox="0 0 512 512" style="enable-background:new 0 0 512 512;" xml:space="preserve">
<g>
	<g>
		<path d="M305.11,173.93c-1.86-1.87-4.44-2.939-7.07-2.939c-2.64,0-5.21,1.069-7.08,2.939c-1.86,1.86-2.92,4.43-2.92,7.07
			c0,2.63,1.06,5.2,2.92,7.069c1.87,1.861,4.45,2.921,7.08,2.921s5.21-1.061,7.07-2.921c1.86-1.869,2.93-4.439,2.93-7.069
			C308.04,178.359,306.97,175.79,305.11,173.93z"/>
	</g>
</g>
<g>
	<g>
		<path d="M395.55,40.1c-8.519-6.118-17.622-11.509-27.054-16.02c-10.85-5.191-22.26-9.285-33.914-12.167
			c-13.961-3.453-28.387-5.204-42.875-5.204h-25.782c-0.305,0-0.605,0.019-0.903,0.046C259,2.506,251.664,0,243.75,0h-5.84
			c-21.367,0-41.11,9.89-53.865,26.709h-16.461c-5.523,0-10,4.478-10,10c0,5.522,4.477,10,10,10h16.389
			C196.706,63.892,216.617,74,238.276,74h5.474c8.25,0,15.876-2.716,22.037-7.298c0.047,0.001,0.092,0.007,0.139,0.007h25.782
			c9.638,0,19.216,1.16,28.467,3.448c7.708,1.907,15.253,4.614,22.427,8.047c6.259,2.995,12.298,6.571,17.95,10.63
			c31.12,22.349,49.698,58.594,49.698,96.957v14.956c0,65.662-53.178,119.082-118.542,119.082H244.25v-8.446
			c80.866-14.24,142.5-84.997,142.5-169.883V128c0-5.522-4.477-10-10-10h-325c-5.523,0-10,4.478-10,10v13.5
			c0,84.887,61.634,155.643,142.5,169.883v10.435h-8.83c-29.229,0-53.008,23.796-53.008,53.046s23.779,53.047,53.008,53.047h8.83
			v10.094h-36.005c-35.287,0-63.995,28.708-63.995,63.995c0,5.522,4.477,10,10,10h240c5.523,0,10-4.478,10-10
			c0-32.307-24.069-59.083-55.214-63.378v-11.925c0-19.843-10.604-37.254-26.442-46.868h29.114
			c98.448,0,178.542-80.336,178.542-179.082v-14.956C470.25,128.153,442.325,73.689,395.55,40.1z M243.75,54h-5.474
			c-14.396,0-27.7-6.335-36.691-17.216C210.576,26.173,223.738,20,237.91,20h5.84c9.374,0,17,7.626,17,17S253.124,54,243.75,54z
			 M70,190.995h190.036c5.523,0,10-4.478,10-10c0-5.522-4.477-10-10-10H64.623c-1.879-9.546-2.873-19.406-2.873-29.495V138h305v3.5
			c0,84.089-68.411,152.5-152.5,152.5C147.479,294,90.599,250.863,70,190.995z M224.25,313.703v58.208h-20v-58.208
			c3.31,0.19,6.643,0.297,10,0.297S220.94,313.893,224.25,313.703z M280.255,458.005c20.821,0,38.309,14.537,42.849,33.995H105.396
			c4.539-19.458,22.028-33.995,42.849-33.995H280.255z M204.25,438.005v-10.094h32.757c2.783,0,5.047,2.264,5.047,5.047
			c0,2.783-2.264,5.047-5.047,5.047H204.25z M269.036,426.697v11.308h-7.493c0.335-1.631,0.511-3.319,0.511-5.047
			c0-13.811-11.236-25.047-25.047-25.047H175.42c-18.201,0-33.008-14.825-33.008-33.047s14.807-33.046,33.008-33.046h8.83v30.093
			h-3.756c-1.148,0-2.082-0.934-2.082-2.082c0-5.522-4.477-10-10-10c-5.523,0-10,4.478-10,10c0,12.176,9.906,22.082,22.082,22.082
			h53.756C253.431,391.911,269.036,407.515,269.036,426.697z M291.708,359.829H244.25v-20h47.458
			c76.392,0,138.542-62.392,138.542-139.082v-14.956c0-44.788-21.694-87.106-58.031-113.201
			c-6.605-4.744-13.666-8.926-20.984-12.427c-8.397-4.019-17.231-7.188-26.256-9.42c-10.822-2.677-22.016-4.034-33.27-4.034h-12.26
			c0.843-3.096,1.302-6.349,1.302-9.709c0-3.571-0.519-7.021-1.467-10.291h12.425c12.871,0,25.681,1.554,38.072,4.618
			c10.337,2.558,20.458,6.188,30.085,10.795c8.373,4.004,16.454,8.789,24.018,14.223c41.557,29.842,66.366,78.233,66.366,129.446
			v14.956h0C450.25,288.465,379.128,359.829,291.708,359.829z"/>
	</g>
</g>
<g>
</g>
<g>
</g>
<g>
</g>
<g>
</g>
<g>
</g>
<g>
</g>
<g>
</g>
<g>
</g>
<g>
</g>
<g>
</g>
<g>
</g>
<g>
</g>
<g>
</g>
<g>
</g>
<g>
</g>
</svg>
